<svg id="fc75c12d-d906-42d6-9fd8-0987e8b2ac34" data-name="Ebene 1" xmlns="http://www.w3.org/2000/svg" xmlns:xlink="http://www.w3.org/1999/xlink" width="240" height="240" viewBox="0 0 240 240" preserveAspectRatio="xMidYMid meet"><defs><style>.a5ccf319-6292-4018-a41d-dd085ea7d089,.bc22e3c6-b5b1-410f-b300-dd5ea969b441,.fed5e365-5e8b-4138-bfb7-712af92dbec3{fill:none;}.bd66aabf-f9d0-44b8-aa08-04920d3baebb{clip-path:url(#ff198cc7-0b05-4192-a282-375a6f5ee06e);}.a5ccf319-6292-4018-a41d-dd085ea7d089,.bc22e3c6-b5b1-410f-b300-dd5ea969b441{stroke:#007c85;stroke-linecap:round;stroke-linejoin:round;stroke-width:2.889px;}.a5ccf319-6292-4018-a41d-dd085ea7d089{stroke-dasharray:0 8.649;}</style><clipPath id="ff198cc7-0b05-4192-a282-375a6f5ee06e"><circle class="fed5e365-5e8b-4138-bfb7-712af92dbec3" cx="120" cy="120" r="120"/></clipPath></defs><g class="bd66aabf-f9d0-44b8-aa08-04920d3baebb"><line class="a5ccf319-6292-4018-a41d-dd085ea7d089" x1="4.7271" y1="-196.3069" x2="4.7271" y2="430.7101"/><path class="bc22e3c6-b5b1-410f-b300-dd5ea969b441" d="M4.7271,435.0337h0m0-639.989h0"/><line class="a5ccf319-6292-4018-a41d-dd085ea7d089" x1="16.2845" y1="-196.3069" x2="16.2845" y2="430.7101"/><path class="bc22e3c6-b5b1-410f-b300-dd5ea969b441" d="M16.2845,435.0337h0m0-639.989h0"/><line class="a5ccf319-6292-4018-a41d-dd085ea7d089" x1="27.842" y1="-196.3069" x2="27.842" y2="430.7101"/><path class="bc22e3c6-b5b1-410f-b300-dd5ea969b441" d="M27.842,435.0337h0m0-639.989h0"/><line class="a5ccf319-6292-4018-a41d-dd085ea7d089" x1="39.3995" y1="-196.3069" x2="39.3995" y2="430.7101"/><path class="bc22e3c6-b5b1-410f-b300-dd5ea969b441" d="M39.4,435.0337h0m0-639.989h0"/><line class="a5ccf319-6292-4018-a41d-dd085ea7d089" x1="50.957" y1="-196.3069" x2="50.957" y2="430.7101"/><path class="bc22e3c6-b5b1-410f-b300-dd5ea969b441" d="M50.957,435.0337h0m0-639.989h0"/><line class="a5ccf319-6292-4018-a41d-dd085ea7d089" x1="62.5145" y1="-196.3069" x2="62.5145" y2="430.7101"/><path class="bc22e3c6-b5b1-410f-b300-dd5ea969b441" d="M62.5145,435.0337h0m0-639.989h0"/><line class="a5ccf319-6292-4018-a41d-dd085ea7d089" x1="74.072" y1="-196.3069" x2="74.072" y2="430.7101"/><path class="bc22e3c6-b5b1-410f-b300-dd5ea969b441" d="M74.072,435.0337h0m0-639.989h0"/><line class="a5ccf319-6292-4018-a41d-dd085ea7d089" x1="85.6295" y1="-196.3069" x2="85.6295" y2="430.7101"/><path class="bc22e3c6-b5b1-410f-b300-dd5ea969b441" d="M85.63,435.0337h0m0-639.989h0"/><line class="a5ccf319-6292-4018-a41d-dd085ea7d089" x1="97.187" y1="-196.3069" x2="97.187" y2="430.7101"/><path class="bc22e3c6-b5b1-410f-b300-dd5ea969b441" d="M97.187,435.0337h0m0-639.989h0"/><line class="a5ccf319-6292-4018-a41d-dd085ea7d089" x1="108.7445" y1="-196.3069" x2="108.7445" y2="430.7101"/><path class="bc22e3c6-b5b1-410f-b300-dd5ea969b441" d="M108.7445,435.0337h0m0-639.989h0"/><line class="a5ccf319-6292-4018-a41d-dd085ea7d089" x1="120.302" y1="-196.3069" x2="120.302" y2="430.7101"/><path class="bc22e3c6-b5b1-410f-b300-dd5ea969b441" d="M120.302,435.0337h0m0-639.989h0"/><line class="a5ccf319-6292-4018-a41d-dd085ea7d089" x1="131.1914" y1="-196.3069" x2="131.1914" y2="430.7101"/><path class="bc22e3c6-b5b1-410f-b300-dd5ea969b441" d="M131.1914,435.0337h0m0-639.989h0"/><line class="a5ccf319-6292-4018-a41d-dd085ea7d089" x1="142.7489" y1="-196.3069" x2="142.7489" y2="430.7101"/><path class="bc22e3c6-b5b1-410f-b300-dd5ea969b441" d="M142.7489,435.0337h0m0-639.989h0"/><line class="a5ccf319-6292-4018-a41d-dd085ea7d089" x1="154.3064" y1="-196.3069" x2="154.3064" y2="430.7101"/><path class="bc22e3c6-b5b1-410f-b300-dd5ea969b441" d="M154.3064,435.0337h0m0-639.989h0"/><line class="a5ccf319-6292-4018-a41d-dd085ea7d089" x1="165.8639" y1="-196.3069" x2="165.8639" y2="430.7101"/><path class="bc22e3c6-b5b1-410f-b300-dd5ea969b441" d="M165.8639,435.0337h0m0-639.989h0"/><line class="a5ccf319-6292-4018-a41d-dd085ea7d089" x1="177.4214" y1="-196.3069" x2="177.4214" y2="430.7101"/><path class="bc22e3c6-b5b1-410f-b300-dd5ea969b441" d="M177.4214,435.0337h0m0-639.989h0"/><line class="a5ccf319-6292-4018-a41d-dd085ea7d089" x1="188.9789" y1="-196.3069" x2="188.9789" y2="430.7101"/><path class="bc22e3c6-b5b1-410f-b300-dd5ea969b441" d="M188.9789,435.0337h0m0-639.989h0"/><line class="a5ccf319-6292-4018-a41d-dd085ea7d089" x1="200.5364" y1="-196.3069" x2="200.5364" y2="430.7101"/><path class="bc22e3c6-b5b1-410f-b300-dd5ea969b441" d="M200.5364,435.0337h0m0-639.989h0"/><line class="a5ccf319-6292-4018-a41d-dd085ea7d089" x1="212.0939" y1="-196.3069" x2="212.0939" y2="430.7101"/><path class="bc22e3c6-b5b1-410f-b300-dd5ea969b441" d="M212.0939,435.0337h0m0-639.989h0"/><line class="a5ccf319-6292-4018-a41d-dd085ea7d089" x1="223.6514" y1="-196.3069" x2="223.6514" y2="430.7101"/><path class="bc22e3c6-b5b1-410f-b300-dd5ea969b441" d="M223.6514,435.0337h0m0-639.989h0"/><line class="a5ccf319-6292-4018-a41d-dd085ea7d089" x1="235.2089" y1="-196.3069" x2="235.2089" y2="430.7101"/><path class="bc22e3c6-b5b1-410f-b300-dd5ea969b441" d="M235.2089,435.0337h0m0-639.989h0"/></g></svg>