<svg width="169" height="169" viewBox="0 0 169 169" fill="none" xmlns="http://www.w3.org/2000/svg">
<g filter="url(#filter0_d_61_85)">
<g clip-path="url(#clip0_61_85)">
<rect x="36.0771" y="32.5938" width="96" height="96" rx="48" fill="white"/>
<g clip-path="url(#clip1_61_85)">
<path d="M77.4263 112.594C68.9394 109.602 61.9885 103.362 58.1027 95.245C54.217 87.1284 53.7146 77.8007 56.7063 69.3138C58.3922 64.5313 61.1286 60.1875 64.7143 56.6018C68.3 53.0161 72.6438 50.2797 77.4263 48.5938V69.5508C77.358 71.4538 77.9155 73.3267 79.0133 74.8828C81.3413 77.9288 85.9363 77.9328 89.1023 74.7528C89.3373 74.5198 89.5663 74.2747 89.7963 74.0277C90.9633 72.7847 91.6043 72.0998 93.5483 72.0998C96.2163 72.0998 100.075 75.1248 100.075 80.5938C100.075 86.0628 96.2163 89.0877 93.5483 89.0877C91.6043 89.0877 90.9633 88.4018 89.7963 87.1598C89.5663 86.9108 89.3373 86.6678 89.1103 86.4417C88.4175 85.6915 87.5834 85.0855 86.6559 84.6584C85.7284 84.2312 84.7257 83.9914 83.7053 83.9528C80.6803 83.9528 77.4263 86.3558 77.4263 91.6367V112.594Z" fill="#007C84"/>
</g>
</g>
</g>
<defs>
<filter id="filter0_d_61_85" x="0.0771484" y="0.59375" width="168" height="168" filterUnits="userSpaceOnUse" color-interpolation-filters="sRGB">
<feFlood flood-opacity="0" result="BackgroundImageFix"/>
<feColorMatrix in="SourceAlpha" type="matrix" values="0 0 0 0 0 0 0 0 0 0 0 0 0 0 0 0 0 0 127 0" result="hardAlpha"/>
<feMorphology radius="4" operator="erode" in="SourceAlpha" result="effect1_dropShadow_61_85"/>
<feOffset dy="4"/>
<feGaussianBlur stdDeviation="20"/>
<feComposite in2="hardAlpha" operator="out"/>
<feColorMatrix type="matrix" values="0 0 0 0 0.839216 0 0 0 0 0.839216 0 0 0 0 0.670588 0 0 0 0.44 0"/>
<feBlend mode="normal" in2="BackgroundImageFix" result="effect1_dropShadow_61_85"/>
<feBlend mode="normal" in="SourceGraphic" in2="effect1_dropShadow_61_85" result="shape"/>
</filter>
<clipPath id="clip0_61_85">
<rect x="36.0771" y="32.5938" width="96" height="96" rx="48" fill="white"/>
</clipPath>
<clipPath id="clip1_61_85">
<rect width="96" height="96" fill="white" transform="translate(36.0771 32.5938)"/>
</clipPath>
</defs>
</svg>
