<svg version="1.1" xmlns="http://www.w3.org/2000/svg" xmlns:xlink="http://www.w3.org/1999/xlink" width="169" height="169" viewBox="0,0,256,256"><defs><clipPath id="clip-1"><rect x="36.3728" y="32.0879" width="96" height="96" rx="48" ry="0" id="clip0_3_69" fill="none"></rect></clipPath><clipPath id="clip-2"><rect x="36.3728" y="32.0879" width="96" height="96" id="clip1_3_69" fill="none"></rect></clipPath></defs><g fill="none" fill-rule="nonzero" stroke="none" stroke-width="1" stroke-linecap="butt" stroke-linejoin="miter" stroke-miterlimit="10" stroke-dasharray="" stroke-dashoffset="0" font-family="none" font-weight="none" font-size="none" text-anchor="none" style="mix-blend-mode: normal"><g transform="translate(0.19268,6.68342) scale(1.51479,1.51479)"><g><g clip-path="url(#clip-1)"><rect x="36.3728" y="32.0879" width="96" height="96" rx="48" ry="0" fill="#ffffff"></rect><g clip-path="url(#clip-2)"><path d="M89.6948,82.7479c-0.7896,0.7897 -1.7956,1.3275 -2.8908,1.5454c-1.0953,0.218 -2.2305,0.1062 -3.2623,-0.3211c-1.0317,-0.4273 -1.9135,-1.151 -2.534,-2.0795c-0.6204,-0.9285 -0.9516,-2.0201 -0.9516,-3.1368c0,-1.1167 0.3312,-2.2084 0.9516,-3.1369c0.6205,-0.9285 1.5023,-1.6521 2.534,-2.0794c1.0318,-0.4273 2.167,-0.5391 3.2623,-0.3212c1.0952,0.218 2.1012,0.7558 2.8908,1.5455c0.5243,0.5242 0.9402,1.1465 1.224,1.8315c0.2837,0.6849 0.4298,1.4191 0.4298,2.1605c0,0.7414 -0.1461,1.4755 -0.4298,2.1605c-0.2838,0.6849 -0.6997,1.3073 -1.224,1.8315zM108.279,56.0879l-26.6882,9.548c-1.9891,0.7124 -3.8062,1.8352 -5.3333,3.2954c-1.5271,1.4603 -2.73,3.2253 -3.5307,5.1806c-4.232,10.344 -12.26,29.9761 -12.26,29.9761c0,0 19.436,-7.9681 29.716,-12.1801c1.9537,-0.801 3.717,-2.0042 5.1752,-3.5313c1.4583,-1.5272 2.5788,-3.3441 3.2888,-5.3327l3.7392,-10.466z" fill="#007c85"></path></g></g></g></g></g></svg>