<svg version="1.1" xmlns="http://www.w3.org/2000/svg" xmlns:xlink="http://www.w3.org/1999/xlink" width="512.000000pt" height="512.000000pt" viewBox="0,0,256,256"><g fill="#007c85" fill-rule="nonzero" stroke="none" stroke-width="1" stroke-linecap="butt" stroke-linejoin="miter" stroke-miterlimit="10" stroke-dasharray="" stroke-dashoffset="0" font-family="none" font-weight="none" font-size="none" text-anchor="none" style="mix-blend-mode: normal"><g transform="translate(0.05625,0.0238) scale(0.5,0.5)"><g transform="translate(0,512) scale(0.1,-0.1)"><path d="M2330,5110c-494,-48 -950,-230 -1350,-538c-195,-150 -448,-432 -594,-662c-63,-99 -186,-351 -230,-471c-49,-134 -102,-340 -128,-499c-31,-195 -31,-565 0,-760c45,-276 116,-498 237,-745c132,-269 269,-460 489,-681c221,-220 412,-357 681,-489c247,-121 469,-192 745,-237c195,-31 565,-31 760,0c276,45 498,116 745,237c269,132 460,269 681,489c220,221 357,412 489,681c88,179 132,296 180,476c63,240 78,371 78,649c0,278 -15,409 -78,649c-48,180 -92,297 -180,476c-132,269 -269,460 -489,681c-221,220 -412,357 -681,489c-246,121 -474,193 -740,235c-147,23 -475,34 -615,20zM3899,3658c50,-16 127,-91 148,-146c24,-64 22,-147 -6,-205c-32,-65 -1678,-1699 -1752,-1740c-72,-38 -156,-38 -228,1c-42,22 -800,701 -929,832c-51,51 -76,113 -75,185c2,151 113,253 263,243c36,-3 80,-12 97,-22c27,-13 532,-468 696,-625l47,-46l748,747c411,410 761,753 779,762c69,35 131,39 212,14z"></path></g></g></g></svg>